solid ASCII
  facet normal 0.000000e+00 0.000000e+00 -1.000000e+00
    outer loop
      vertex   5.120000e-01 -5.120000e-01 -4.000000e-02
      vertex   -1.200000e-02 -5.120000e-01 -4.000000e-02
      vertex   5.120000e-01 -1.200000e-02 -4.000000e-02
    endloop
  endfacet
  facet normal -0.000000e+00 0.000000e+00 -1.000000e+00
    outer loop
      vertex   5.120000e-01 -1.200000e-02 -4.000000e-02
      vertex   -1.200000e-02 -5.120000e-01 -4.000000e-02
      vertex   -1.200000e-02 1.812000e+00 -4.000000e-02
    endloop
  endfacet
  facet normal 0.000000e+00 0.000000e+00 -1.000000e+00
    outer loop
      vertex   5.120000e-01 -1.200000e-02 -4.000000e-02
      vertex   -1.200000e-02 1.812000e+00 -4.000000e-02
      vertex   1.812000e+00 1.812000e+00 -4.000000e-02
    endloop
  endfacet
  facet normal 0.000000e+00 -0.000000e+00 -1.000000e+00
    outer loop
      vertex   1.812000e+00 1.812000e+00 -4.000000e-02
      vertex   1.812000e+00 -1.200000e-02 -4.000000e-02
      vertex   5.120000e-01 -1.200000e-02 -4.000000e-02
    endloop
  endfacet
  facet normal -0.000000e+00 0.000000e+00 1.000000e+00
    outer loop
      vertex   -1.200000e-02 1.050000e+00 0.000000e+00
      vertex   0.000000e+00 7.500000e-01 0.000000e+00
      vertex   0.000000e+00 1.050000e+00 0.000000e+00
    endloop
  endfacet
  facet normal 0.000000e+00 0.000000e+00 1.000000e+00
    outer loop
      vertex   0.000000e+00 1.050000e+00 0.000000e+00
      vertex   0.000000e+00 7.500000e-01 0.000000e+00
      vertex   5.000000e-01 0.000000e+00 0.000000e+00
    endloop
  endfacet
  facet normal -0.000000e+00 0.000000e+00 1.000000e+00
    outer loop
      vertex   0.000000e+00 1.050000e+00 0.000000e+00
      vertex   5.000000e-01 0.000000e+00 0.000000e+00
      vertex   1.800000e+00 1.800000e+00 0.000000e+00
    endloop
  endfacet
  facet normal 0.000000e+00 0.000000e+00 1.000000e+00
    outer loop
      vertex   1.800000e+00 1.800000e+00 0.000000e+00
      vertex   5.000000e-01 0.000000e+00 0.000000e+00
      vertex   1.800000e+00 0.000000e+00 0.000000e+00
    endloop
  endfacet
  facet normal 0.000000e+00 0.000000e+00 1.000000e+00
    outer loop
      vertex   -1.200000e-02 1.050000e+00 0.000000e+00
      vertex   -1.200000e-02 7.500000e-01 0.000000e+00
      vertex   0.000000e+00 7.500000e-01 0.000000e+00
    endloop
  endfacet
  facet normal 0.000000e+00 0.000000e+00 1.000000e+00
    outer loop
      vertex   0.000000e+00 7.500000e-01 0.000000e+00
      vertex   0.000000e+00 4.000000e-01 0.000000e+00
      vertex   5.000000e-01 0.000000e+00 0.000000e+00
    endloop
  endfacet
  facet normal 0.000000e+00 0.000000e+00 1.000000e+00
    outer loop
      vertex   5.000000e-01 0.000000e+00 0.000000e+00
      vertex   0.000000e+00 4.000000e-01 0.000000e+00
      vertex   0.000000e+00 1.000000e-01 0.000000e+00
    endloop
  endfacet
  facet normal 0.000000e+00 0.000000e+00 1.000000e+00
    outer loop
      vertex   5.000000e-01 0.000000e+00 0.000000e+00
      vertex   0.000000e+00 1.000000e-01 0.000000e+00
      vertex   0.000000e+00 -5.000000e-01 0.000000e+00
    endloop
  endfacet
  facet normal 0.000000e+00 0.000000e+00 1.000000e+00
    outer loop
      vertex   0.000000e+00 4.000000e-01 0.000000e+00
      vertex   -1.200000e-02 4.000000e-01 0.000000e+00
      vertex   0.000000e+00 1.000000e-01 0.000000e+00
    endloop
  endfacet
  facet normal 0.000000e+00 0.000000e+00 1.000000e+00
    outer loop
      vertex   0.000000e+00 1.000000e-01 0.000000e+00
      vertex   -1.200000e-02 4.000000e-01 0.000000e+00
      vertex   -1.200000e-02 1.000000e-01 0.000000e+00
    endloop
  endfacet
  facet normal 0.000000e+00 0.000000e+00 1.000000e+00
    outer loop
      vertex   0.000000e+00 -5.000000e-01 0.000000e+00
      vertex   5.000000e-01 -5.000000e-01 0.000000e+00
      vertex   5.000000e-01 0.000000e+00 0.000000e+00
    endloop
  endfacet
  facet normal -0.000000e+00 0.000000e+00 1.000000e+00
    outer loop
      vertex   0.000000e+00 1.800000e+00 0.000000e+00
      vertex   0.000000e+00 1.700000e+00 0.000000e+00
      vertex   1.800000e+00 1.800000e+00 0.000000e+00
    endloop
  endfacet
  facet normal 0.000000e+00 0.000000e+00 1.000000e+00
    outer loop
      vertex   1.800000e+00 1.800000e+00 0.000000e+00
      vertex   0.000000e+00 1.700000e+00 0.000000e+00
      vertex   0.000000e+00 1.400000e+00 0.000000e+00
    endloop
  endfacet
  facet normal 0.000000e+00 0.000000e+00 1.000000e+00
    outer loop
      vertex   1.800000e+00 1.800000e+00 0.000000e+00
      vertex   0.000000e+00 1.400000e+00 0.000000e+00
      vertex   0.000000e+00 1.050000e+00 0.000000e+00
    endloop
  endfacet
  facet normal 0.000000e+00 0.000000e+00 1.000000e+00
    outer loop
      vertex   0.000000e+00 1.700000e+00 0.000000e+00
      vertex   -1.200000e-02 1.700000e+00 0.000000e+00
      vertex   0.000000e+00 1.400000e+00 0.000000e+00
    endloop
  endfacet
  facet normal 0.000000e+00 0.000000e+00 1.000000e+00
    outer loop
      vertex   0.000000e+00 1.400000e+00 0.000000e+00
      vertex   -1.200000e-02 1.700000e+00 0.000000e+00
      vertex   -1.200000e-02 1.400000e+00 0.000000e+00
    endloop
  endfacet
  facet normal 0.000000e+00 1.000000e+00 -0.000000e+00
    outer loop
      vertex   5.000000e-01 -5.000000e-01 0.000000e+00
      vertex   0.000000e+00 -5.000000e-01 0.000000e+00
      vertex   5.000000e-01 -5.000000e-01 4.000000e-02
    endloop
  endfacet
  facet normal 0.000000e+00 1.000000e+00 0.000000e+00
    outer loop
      vertex   5.000000e-01 -5.000000e-01 4.000000e-02
      vertex   0.000000e+00 -5.000000e-01 0.000000e+00
      vertex   0.000000e+00 -5.000000e-01 4.000000e-02
    endloop
  endfacet
  facet normal -1.000000e+00 0.000000e+00 0.000000e+00
    outer loop
      vertex   5.000000e-01 0.000000e+00 0.000000e+00
      vertex   5.000000e-01 -5.000000e-01 0.000000e+00
      vertex   5.000000e-01 0.000000e+00 4.000000e-02
    endloop
  endfacet
  facet normal -1.000000e+00 -0.000000e+00 0.000000e+00
    outer loop
      vertex   5.000000e-01 0.000000e+00 4.000000e-02
      vertex   5.000000e-01 -5.000000e-01 0.000000e+00
      vertex   5.000000e-01 -5.000000e-01 4.000000e-02
    endloop
  endfacet
  facet normal 0.000000e+00 1.000000e+00 -0.000000e+00
    outer loop
      vertex   1.800000e+00 0.000000e+00 0.000000e+00
      vertex   5.000000e-01 0.000000e+00 0.000000e+00
      vertex   1.800000e+00 0.000000e+00 4.000000e-02
    endloop
  endfacet
  facet normal 0.000000e+00 1.000000e+00 0.000000e+00
    outer loop
      vertex   1.800000e+00 0.000000e+00 4.000000e-02
      vertex   5.000000e-01 0.000000e+00 0.000000e+00
      vertex   5.000000e-01 0.000000e+00 4.000000e-02
    endloop
  endfacet
  facet normal -1.000000e+00 0.000000e+00 0.000000e+00
    outer loop
      vertex   1.800000e+00 1.800000e+00 0.000000e+00
      vertex   1.800000e+00 0.000000e+00 0.000000e+00
      vertex   1.800000e+00 1.800000e+00 4.000000e-02
    endloop
  endfacet
  facet normal -1.000000e+00 -0.000000e+00 0.000000e+00
    outer loop
      vertex   1.800000e+00 1.800000e+00 4.000000e-02
      vertex   1.800000e+00 0.000000e+00 0.000000e+00
      vertex   1.800000e+00 0.000000e+00 4.000000e-02
    endloop
  endfacet
  facet normal 0.000000e+00 -1.000000e+00 0.000000e+00
    outer loop
      vertex   0.000000e+00 1.800000e+00 0.000000e+00
      vertex   1.800000e+00 1.800000e+00 0.000000e+00
      vertex   0.000000e+00 1.800000e+00 4.000000e-02
    endloop
  endfacet
  facet normal 0.000000e+00 -1.000000e+00 0.000000e+00
    outer loop
      vertex   0.000000e+00 1.800000e+00 4.000000e-02
      vertex   1.800000e+00 1.800000e+00 0.000000e+00
      vertex   1.800000e+00 1.800000e+00 4.000000e-02
    endloop
  endfacet
  facet normal 1.000000e+00 0.000000e+00 0.000000e+00
    outer loop
      vertex   0.000000e+00 1.700000e+00 0.000000e+00
      vertex   0.000000e+00 1.800000e+00 0.000000e+00
      vertex   0.000000e+00 1.700000e+00 4.000000e-02
    endloop
  endfacet
  facet normal 1.000000e+00 -0.000000e+00 0.000000e+00
    outer loop
      vertex   0.000000e+00 1.700000e+00 4.000000e-02
      vertex   0.000000e+00 1.800000e+00 0.000000e+00
      vertex   0.000000e+00 1.800000e+00 4.000000e-02
    endloop
  endfacet
  facet normal 0.000000e+00 -1.000000e+00 0.000000e+00
    outer loop
      vertex   -1.200000e-02 1.700000e+00 0.000000e+00
      vertex   0.000000e+00 1.700000e+00 0.000000e+00
      vertex   -1.200000e-02 1.700000e+00 4.000000e-02
    endloop
  endfacet
  facet normal 0.000000e+00 -1.000000e+00 0.000000e+00
    outer loop
      vertex   -1.200000e-02 1.700000e+00 4.000000e-02
      vertex   0.000000e+00 1.700000e+00 0.000000e+00
      vertex   0.000000e+00 1.700000e+00 4.000000e-02
    endloop
  endfacet
  facet normal -0.000000e+00 1.000000e+00 0.000000e+00
    outer loop
      vertex   -1.200000e-02 1.812000e+00 4.000000e-02
      vertex   1.812000e+00 1.812000e+00 4.000000e-02
      vertex   -1.200000e-02 1.812000e+00 -4.000000e-02
    endloop
  endfacet
  facet normal 0.000000e+00 1.000000e+00 0.000000e+00
    outer loop
      vertex   -1.200000e-02 1.812000e+00 -4.000000e-02
      vertex   1.812000e+00 1.812000e+00 4.000000e-02
      vertex   1.812000e+00 1.812000e+00 -4.000000e-02
    endloop
  endfacet
  facet normal 1.000000e+00 0.000000e+00 0.000000e+00
    outer loop
      vertex   1.812000e+00 1.812000e+00 4.000000e-02
      vertex   1.812000e+00 -1.200000e-02 4.000000e-02
      vertex   1.812000e+00 1.812000e+00 -4.000000e-02
    endloop
  endfacet
  facet normal 1.000000e+00 0.000000e+00 0.000000e+00
    outer loop
      vertex   1.812000e+00 1.812000e+00 -4.000000e-02
      vertex   1.812000e+00 -1.200000e-02 4.000000e-02
      vertex   1.812000e+00 -1.200000e-02 -4.000000e-02
    endloop
  endfacet
  facet normal 1.467843e-16 -1.000000e+00 1.734723e-16
    outer loop
      vertex   1.812000e+00 -1.200000e-02 4.000000e-02
      vertex   5.120000e-01 -1.200000e-02 4.000000e-02
      vertex   1.812000e+00 -1.200000e-02 -4.000000e-02
    endloop
  endfacet
  facet normal 1.627971e-16 -1.000000e+00 4.336809e-16
    outer loop
      vertex   1.812000e+00 -1.200000e-02 -4.000000e-02
      vertex   5.120000e-01 -1.200000e-02 4.000000e-02
      vertex   5.120000e-01 -1.200000e-02 -4.000000e-02
    endloop
  endfacet
  facet normal 1.000000e+00 4.440892e-16 -1.925930e-31
    outer loop
      vertex   5.120000e-01 -1.200000e-02 4.000000e-02
      vertex   5.120000e-01 -5.120000e-01 4.000000e-02
      vertex   5.120000e-01 -1.200000e-02 -4.000000e-02
    endloop
  endfacet
  facet normal 1.000000e+00 4.440892e-16 0.000000e+00
    outer loop
      vertex   5.120000e-01 -1.200000e-02 -4.000000e-02
      vertex   5.120000e-01 -5.120000e-01 4.000000e-02
      vertex   5.120000e-01 -5.120000e-01 -4.000000e-02
    endloop
  endfacet
  facet normal -2.118746e-16 -1.000000e+00 -0.000000e+00
    outer loop
      vertex   5.120000e-01 -5.120000e-01 4.000000e-02
      vertex   -1.200000e-02 -5.120000e-01 4.000000e-02
      vertex   5.120000e-01 -5.120000e-01 -4.000000e-02
    endloop
  endfacet
  facet normal -2.118746e-16 -1.000000e+00 0.000000e+00
    outer loop
      vertex   5.120000e-01 -5.120000e-01 -4.000000e-02
      vertex   -1.200000e-02 -5.120000e-01 4.000000e-02
      vertex   -1.200000e-02 -5.120000e-01 -4.000000e-02
    endloop
  endfacet
  facet normal 0.000000e+00 1.000000e+00 -0.000000e+00
    outer loop
      vertex   0.000000e+00 1.000000e-01 0.000000e+00
      vertex   -1.200000e-02 1.000000e-01 0.000000e+00
      vertex   0.000000e+00 1.000000e-01 4.000000e-02
    endloop
  endfacet
  facet normal 0.000000e+00 1.000000e+00 0.000000e+00
    outer loop
      vertex   0.000000e+00 1.000000e-01 4.000000e-02
      vertex   -1.200000e-02 1.000000e-01 0.000000e+00
      vertex   -1.200000e-02 1.000000e-01 4.000000e-02
    endloop
  endfacet
  facet normal 1.000000e+00 0.000000e+00 0.000000e+00
    outer loop
      vertex   0.000000e+00 -5.000000e-01 0.000000e+00
      vertex   0.000000e+00 1.000000e-01 0.000000e+00
      vertex   0.000000e+00 -5.000000e-01 4.000000e-02
    endloop
  endfacet
  facet normal 1.000000e+00 -0.000000e+00 0.000000e+00
    outer loop
      vertex   0.000000e+00 -5.000000e-01 4.000000e-02
      vertex   0.000000e+00 1.000000e-01 0.000000e+00
      vertex   0.000000e+00 1.000000e-01 4.000000e-02
    endloop
  endfacet
  facet normal 0.000000e+00 0.000000e+00 1.000000e+00
    outer loop
      vertex   0.000000e+00 1.000000e-01 4.000000e-02
      vertex   -1.200000e-02 1.000000e-01 4.000000e-02
      vertex   0.000000e+00 -5.000000e-01 4.000000e-02
    endloop
  endfacet
  facet normal 0.000000e+00 0.000000e+00 1.000000e+00
    outer loop
      vertex   0.000000e+00 -5.000000e-01 4.000000e-02
      vertex   -1.200000e-02 1.000000e-01 4.000000e-02
      vertex   -1.200000e-02 -5.120000e-01 4.000000e-02
    endloop
  endfacet
  facet normal 0.000000e+00 0.000000e+00 1.000000e+00
    outer loop
      vertex   0.000000e+00 -5.000000e-01 4.000000e-02
      vertex   -1.200000e-02 -5.120000e-01 4.000000e-02
      vertex   5.120000e-01 -5.120000e-01 4.000000e-02
    endloop
  endfacet
  facet normal -0.000000e+00 0.000000e+00 1.000000e+00
    outer loop
      vertex   0.000000e+00 -5.000000e-01 4.000000e-02
      vertex   5.120000e-01 -5.120000e-01 4.000000e-02
      vertex   5.000000e-01 -5.000000e-01 4.000000e-02
    endloop
  endfacet
  facet normal -0.000000e+00 0.000000e+00 1.000000e+00
    outer loop
      vertex   5.000000e-01 -5.000000e-01 4.000000e-02
      vertex   5.120000e-01 -5.120000e-01 4.000000e-02
      vertex   5.120000e-01 -1.200000e-02 4.000000e-02
    endloop
  endfacet
  facet normal 0.000000e+00 0.000000e+00 1.000000e+00
    outer loop
      vertex   5.000000e-01 -5.000000e-01 4.000000e-02
      vertex   5.120000e-01 -1.200000e-02 4.000000e-02
      vertex   5.000000e-01 0.000000e+00 4.000000e-02
    endloop
  endfacet
  facet normal -0.000000e+00 0.000000e+00 1.000000e+00
    outer loop
      vertex   5.000000e-01 0.000000e+00 4.000000e-02
      vertex   5.120000e-01 -1.200000e-02 4.000000e-02
      vertex   1.800000e+00 0.000000e+00 4.000000e-02
    endloop
  endfacet
  facet normal 0.000000e+00 0.000000e+00 1.000000e+00
    outer loop
      vertex   1.800000e+00 0.000000e+00 4.000000e-02
      vertex   5.120000e-01 -1.200000e-02 4.000000e-02
      vertex   1.812000e+00 -1.200000e-02 4.000000e-02
    endloop
  endfacet
  facet normal -0.000000e+00 0.000000e+00 1.000000e+00
    outer loop
      vertex   1.800000e+00 0.000000e+00 4.000000e-02
      vertex   1.812000e+00 -1.200000e-02 4.000000e-02
      vertex   1.800000e+00 1.800000e+00 4.000000e-02
    endloop
  endfacet
  facet normal -0.000000e+00 0.000000e+00 1.000000e+00
    outer loop
      vertex   1.800000e+00 1.800000e+00 4.000000e-02
      vertex   1.812000e+00 -1.200000e-02 4.000000e-02
      vertex   1.812000e+00 1.812000e+00 4.000000e-02
    endloop
  endfacet
  facet normal 0.000000e+00 -0.000000e+00 1.000000e+00
    outer loop
      vertex   1.800000e+00 1.800000e+00 4.000000e-02
      vertex   1.812000e+00 1.812000e+00 4.000000e-02
      vertex   -1.200000e-02 1.812000e+00 4.000000e-02
    endloop
  endfacet
  facet normal 0.000000e+00 0.000000e+00 1.000000e+00
    outer loop
      vertex   1.800000e+00 1.800000e+00 4.000000e-02
      vertex   -1.200000e-02 1.812000e+00 4.000000e-02
      vertex   0.000000e+00 1.800000e+00 4.000000e-02
    endloop
  endfacet
  facet normal 0.000000e+00 0.000000e+00 1.000000e+00
    outer loop
      vertex   0.000000e+00 1.800000e+00 4.000000e-02
      vertex   -1.200000e-02 1.812000e+00 4.000000e-02
      vertex   -1.200000e-02 1.700000e+00 4.000000e-02
    endloop
  endfacet
  facet normal 0.000000e+00 0.000000e+00 1.000000e+00
    outer loop
      vertex   0.000000e+00 1.800000e+00 4.000000e-02
      vertex   -1.200000e-02 1.700000e+00 4.000000e-02
      vertex   0.000000e+00 1.700000e+00 4.000000e-02
    endloop
  endfacet
  facet normal 0.000000e+00 1.000000e+00 -0.000000e+00
    outer loop
      vertex   0.000000e+00 7.500000e-01 0.000000e+00
      vertex   -1.200000e-02 7.500000e-01 0.000000e+00
      vertex   0.000000e+00 7.500000e-01 4.000000e-02
    endloop
  endfacet
  facet normal 0.000000e+00 1.000000e+00 0.000000e+00
    outer loop
      vertex   0.000000e+00 7.500000e-01 4.000000e-02
      vertex   -1.200000e-02 7.500000e-01 0.000000e+00
      vertex   -1.200000e-02 7.500000e-01 4.000000e-02
    endloop
  endfacet
  facet normal 1.000000e+00 0.000000e+00 0.000000e+00
    outer loop
      vertex   0.000000e+00 4.000000e-01 0.000000e+00
      vertex   0.000000e+00 7.500000e-01 0.000000e+00
      vertex   0.000000e+00 4.000000e-01 4.000000e-02
    endloop
  endfacet
  facet normal 1.000000e+00 -0.000000e+00 0.000000e+00
    outer loop
      vertex   0.000000e+00 4.000000e-01 4.000000e-02
      vertex   0.000000e+00 7.500000e-01 0.000000e+00
      vertex   0.000000e+00 7.500000e-01 4.000000e-02
    endloop
  endfacet
  facet normal 0.000000e+00 -1.000000e+00 0.000000e+00
    outer loop
      vertex   -1.200000e-02 4.000000e-01 0.000000e+00
      vertex   0.000000e+00 4.000000e-01 0.000000e+00
      vertex   -1.200000e-02 4.000000e-01 4.000000e-02
    endloop
  endfacet
  facet normal 0.000000e+00 -1.000000e+00 0.000000e+00
    outer loop
      vertex   -1.200000e-02 4.000000e-01 4.000000e-02
      vertex   0.000000e+00 4.000000e-01 0.000000e+00
      vertex   0.000000e+00 4.000000e-01 4.000000e-02
    endloop
  endfacet
  facet normal -0.000000e+00 0.000000e+00 1.000000e+00
    outer loop
      vertex   -1.200000e-02 7.500000e-01 4.000000e-02
      vertex   -1.200000e-02 4.000000e-01 4.000000e-02
      vertex   0.000000e+00 7.500000e-01 4.000000e-02
    endloop
  endfacet
  facet normal 0.000000e+00 0.000000e+00 1.000000e+00
    outer loop
      vertex   0.000000e+00 7.500000e-01 4.000000e-02
      vertex   -1.200000e-02 4.000000e-01 4.000000e-02
      vertex   0.000000e+00 4.000000e-01 4.000000e-02
    endloop
  endfacet
  facet normal 0.000000e+00 1.000000e+00 -0.000000e+00
    outer loop
      vertex   0.000000e+00 1.400000e+00 0.000000e+00
      vertex   -1.200000e-02 1.400000e+00 0.000000e+00
      vertex   0.000000e+00 1.400000e+00 4.000000e-02
    endloop
  endfacet
  facet normal 0.000000e+00 1.000000e+00 0.000000e+00
    outer loop
      vertex   0.000000e+00 1.400000e+00 4.000000e-02
      vertex   -1.200000e-02 1.400000e+00 0.000000e+00
      vertex   -1.200000e-02 1.400000e+00 4.000000e-02
    endloop
  endfacet
  facet normal 1.000000e+00 0.000000e+00 0.000000e+00
    outer loop
      vertex   0.000000e+00 1.050000e+00 0.000000e+00
      vertex   0.000000e+00 1.400000e+00 0.000000e+00
      vertex   0.000000e+00 1.050000e+00 4.000000e-02
    endloop
  endfacet
  facet normal 1.000000e+00 -0.000000e+00 0.000000e+00
    outer loop
      vertex   0.000000e+00 1.050000e+00 4.000000e-02
      vertex   0.000000e+00 1.400000e+00 0.000000e+00
      vertex   0.000000e+00 1.400000e+00 4.000000e-02
    endloop
  endfacet
  facet normal 0.000000e+00 -1.000000e+00 0.000000e+00
    outer loop
      vertex   -1.200000e-02 1.050000e+00 0.000000e+00
      vertex   0.000000e+00 1.050000e+00 0.000000e+00
      vertex   -1.200000e-02 1.050000e+00 4.000000e-02
    endloop
  endfacet
  facet normal 0.000000e+00 -1.000000e+00 0.000000e+00
    outer loop
      vertex   -1.200000e-02 1.050000e+00 4.000000e-02
      vertex   0.000000e+00 1.050000e+00 0.000000e+00
      vertex   0.000000e+00 1.050000e+00 4.000000e-02
    endloop
  endfacet
  facet normal -1.000000e+00 -1.486906e-17 -0.000000e+00
    outer loop
      vertex   -1.200000e-02 1.050000e+00 4.000000e-02
      vertex   -1.200000e-02 1.400000e+00 4.000000e-02
      vertex   -1.200000e-02 1.050000e+00 0.000000e+00
    endloop
  endfacet
  facet normal -1.000000e+00 -1.486906e-17 0.000000e+00
    outer loop
      vertex   -1.200000e-02 1.050000e+00 0.000000e+00
      vertex   -1.200000e-02 1.400000e+00 4.000000e-02
      vertex   -1.200000e-02 1.400000e+00 0.000000e+00
    endloop
  endfacet
  facet normal -1.000000e+00 -1.486906e-17 2.805296e-16
    outer loop
      vertex   -1.200000e-02 1.050000e+00 0.000000e+00
      vertex   -1.200000e-02 1.400000e+00 0.000000e+00
      vertex   -1.200000e-02 1.812000e+00 -4.000000e-02
    endloop
  endfacet
  facet normal -1.000000e+00 -4.047688e-17 1.676899e-17
    outer loop
      vertex   -1.200000e-02 1.812000e+00 -4.000000e-02
      vertex   -1.200000e-02 1.400000e+00 0.000000e+00
      vertex   -1.200000e-02 1.700000e+00 0.000000e+00
    endloop
  endfacet
  facet normal -1.000000e+00 -4.646581e-17 0.000000e+00
    outer loop
      vertex   -1.200000e-02 1.812000e+00 -4.000000e-02
      vertex   -1.200000e-02 1.700000e+00 0.000000e+00
      vertex   -1.200000e-02 1.812000e+00 4.000000e-02
    endloop
  endfacet
  facet normal -1.000000e+00 -4.646581e-17 0.000000e+00
    outer loop
      vertex   -1.200000e-02 1.812000e+00 4.000000e-02
      vertex   -1.200000e-02 1.700000e+00 0.000000e+00
      vertex   -1.200000e-02 1.700000e+00 4.000000e-02
    endloop
  endfacet
  facet normal -1.000000e+00 -6.360653e-17 -6.479192e-16
    outer loop
      vertex   -1.200000e-02 1.050000e+00 0.000000e+00
      vertex   -1.200000e-02 1.812000e+00 -4.000000e-02
      vertex   -1.200000e-02 7.500000e-01 0.000000e+00
    endloop
  endfacet
  facet normal -1.000000e+00 -3.956125e-17 -9.517093e-18
    outer loop
      vertex   -1.200000e-02 7.500000e-01 0.000000e+00
      vertex   -1.200000e-02 1.812000e+00 -4.000000e-02
      vertex   -1.200000e-02 -5.120000e-01 -4.000000e-02
    endloop
  endfacet
  facet normal -1.000000e+00 -3.965082e-17 -6.691076e-18
    outer loop
      vertex   -1.200000e-02 7.500000e-01 0.000000e+00
      vertex   -1.200000e-02 -5.120000e-01 -4.000000e-02
      vertex   -1.200000e-02 4.000000e-01 0.000000e+00
    endloop
  endfacet
  facet normal -1.000000e+00 -3.469447e-17 -1.196959e-16
    outer loop
      vertex   -1.200000e-02 4.000000e-01 0.000000e+00
      vertex   -1.200000e-02 -5.120000e-01 -4.000000e-02
      vertex   -1.200000e-02 1.000000e-01 0.000000e+00
    endloop
  endfacet
  facet normal -1.000000e+00 -4.251773e-17 0.000000e+00
    outer loop
      vertex   -1.200000e-02 1.000000e-01 0.000000e+00
      vertex   -1.200000e-02 -5.120000e-01 -4.000000e-02
      vertex   -1.200000e-02 -5.120000e-01 4.000000e-02
    endloop
  endfacet
  facet normal -1.000000e+00 -4.251773e-17 0.000000e+00
    outer loop
      vertex   -1.200000e-02 1.000000e-01 0.000000e+00
      vertex   -1.200000e-02 -5.120000e-01 4.000000e-02
      vertex   -1.200000e-02 1.000000e-01 4.000000e-02
    endloop
  endfacet
  facet normal -1.000000e+00 -3.965082e-17 -0.000000e+00
    outer loop
      vertex   -1.200000e-02 4.000000e-01 4.000000e-02
      vertex   -1.200000e-02 7.500000e-01 4.000000e-02
      vertex   -1.200000e-02 4.000000e-01 0.000000e+00
    endloop
  endfacet
  facet normal -1.000000e+00 -3.965082e-17 0.000000e+00
    outer loop
      vertex   -1.200000e-02 4.000000e-01 0.000000e+00
      vertex   -1.200000e-02 7.500000e-01 4.000000e-02
      vertex   -1.200000e-02 7.500000e-01 0.000000e+00
    endloop
  endfacet
  facet normal -0.000000e+00 0.000000e+00 1.000000e+00
    outer loop
      vertex   -1.200000e-02 1.400000e+00 4.000000e-02
      vertex   -1.200000e-02 1.050000e+00 4.000000e-02
      vertex   0.000000e+00 1.400000e+00 4.000000e-02
    endloop
  endfacet
  facet normal 0.000000e+00 0.000000e+00 1.000000e+00
    outer loop
      vertex   0.000000e+00 1.400000e+00 4.000000e-02
      vertex   -1.200000e-02 1.050000e+00 4.000000e-02
      vertex   0.000000e+00 1.050000e+00 4.000000e-02
    endloop
  endfacet
endsolid
